<mxfile host="app.diagrams.net" modified="2021-01-29T06:15:45.139Z" agent="5.0 (Windows NT 10.0; Win64; x64) AppleWebKit/537.36 (KHTML, like Gecko) Chrome/88.0.4324.104 Safari/537.36" etag="bezLCQr3gcwrbsfP-On0" version="14.2.7" type="github">
  <diagram id="vWpX7ri16496IYqMloE0" name="Page-1">
    <mxGraphModel dx="1422" dy="762" grid="1" gridSize="10" guides="1" tooltips="1" connect="1" arrows="1" fold="1" page="1" pageScale="1" pageWidth="827" pageHeight="1169" math="0" shadow="0">
      <root>
        <mxCell id="0" />
        <mxCell id="1" parent="0" />
        <mxCell id="c4IB6dY-uTS3O9u1TErv-4" style="edgeStyle=orthogonalEdgeStyle;rounded=0;orthogonalLoop=1;jettySize=auto;html=1;exitX=1;exitY=0.5;exitDx=0;exitDy=0;entryX=0;entryY=0.5;entryDx=0;entryDy=0;" edge="1" parent="1" source="c4IB6dY-uTS3O9u1TErv-1" target="c4IB6dY-uTS3O9u1TErv-3">
          <mxGeometry relative="1" as="geometry">
            <Array as="points">
              <mxPoint x="260" y="320" />
              <mxPoint x="260" y="250" />
            </Array>
          </mxGeometry>
        </mxCell>
        <mxCell id="c4IB6dY-uTS3O9u1TErv-7" value="&lt;span style=&quot;color: rgb(51 , 51 , 51) ; font-family: &amp;#34;helvetica neue&amp;#34; , &amp;#34;helvetica&amp;#34; , &amp;#34;pingfang sc&amp;#34; , &amp;#34;hiragino sans gb&amp;#34; , &amp;#34;microsoft yahei&amp;#34; , , &amp;#34;arial&amp;#34; , sans-serif ; font-size: 14px&quot;&gt;mysql2hive任务&lt;/span&gt;" style="edgeLabel;html=1;align=center;verticalAlign=middle;resizable=0;points=[];" vertex="1" connectable="0" parent="c4IB6dY-uTS3O9u1TErv-4">
          <mxGeometry x="0.175" y="4" relative="1" as="geometry">
            <mxPoint x="21" y="4" as="offset" />
          </mxGeometry>
        </mxCell>
        <mxCell id="c4IB6dY-uTS3O9u1TErv-13" style="edgeStyle=orthogonalEdgeStyle;rounded=0;orthogonalLoop=1;jettySize=auto;html=1;exitX=1;exitY=0.5;exitDx=0;exitDy=0;entryX=0.004;entryY=0.617;entryDx=0;entryDy=0;entryPerimeter=0;" edge="1" parent="1" source="c4IB6dY-uTS3O9u1TErv-1" target="c4IB6dY-uTS3O9u1TErv-5">
          <mxGeometry relative="1" as="geometry">
            <Array as="points">
              <mxPoint x="260" y="320" />
              <mxPoint x="260" y="407" />
            </Array>
          </mxGeometry>
        </mxCell>
        <mxCell id="c4IB6dY-uTS3O9u1TErv-1" value="woden#mysql" style="rounded=0;whiteSpace=wrap;html=1;" vertex="1" parent="1">
          <mxGeometry x="110" y="290" width="130" height="60" as="geometry" />
        </mxCell>
        <mxCell id="c4IB6dY-uTS3O9u1TErv-9" style="edgeStyle=orthogonalEdgeStyle;rounded=0;orthogonalLoop=1;jettySize=auto;html=1;exitX=1;exitY=0.5;exitDx=0;exitDy=0;" edge="1" parent="1" source="c4IB6dY-uTS3O9u1TErv-3" target="c4IB6dY-uTS3O9u1TErv-8">
          <mxGeometry relative="1" as="geometry" />
        </mxCell>
        <mxCell id="c4IB6dY-uTS3O9u1TErv-3" value="stage.stage_wo05_woden_ticket_evaluation_s" style="rounded=0;whiteSpace=wrap;html=1;" vertex="1" parent="1">
          <mxGeometry x="414" y="220" width="280" height="60" as="geometry" />
        </mxCell>
        <mxCell id="c4IB6dY-uTS3O9u1TErv-5" value="stage_wo05_woden_ticket_evaluation_s" style="rounded=0;whiteSpace=wrap;html=1;" vertex="1" parent="1">
          <mxGeometry x="414" y="370" width="280" height="60" as="geometry" />
        </mxCell>
        <mxCell id="c4IB6dY-uTS3O9u1TErv-8" value="&lt;span style=&quot;color: rgb(51 , 51 , 51) ; background-color: rgb(255 , 255 , 255)&quot;&gt;&lt;font style=&quot;font-size: 12px&quot;&gt;ods.ods_wo05_woden_ticket_evaluation_s_d&lt;/font&gt;&lt;/span&gt;" style="rounded=0;whiteSpace=wrap;html=1;" vertex="1" parent="1">
          <mxGeometry x="800" y="220" width="280" height="60" as="geometry" />
        </mxCell>
        <mxCell id="c4IB6dY-uTS3O9u1TErv-10" value="&lt;span style=&quot;color: rgb(51 , 51 , 51) ; font-family: &amp;#34;helvetica neue&amp;#34; , &amp;#34;helvetica&amp;#34; , &amp;#34;pingfang sc&amp;#34; , &amp;#34;hiragino sans gb&amp;#34; , &amp;#34;microsoft yahei&amp;#34; , , &amp;#34;arial&amp;#34; , sans-serif ; font-size: 14px&quot;&gt;ods任务&lt;/span&gt;" style="edgeLabel;html=1;align=center;verticalAlign=middle;resizable=0;points=[];" vertex="1" connectable="0" parent="1">
          <mxGeometry x="750" y="250" as="geometry">
            <mxPoint x="-4" y="-2" as="offset" />
          </mxGeometry>
        </mxCell>
        <mxCell id="c4IB6dY-uTS3O9u1TErv-14" value="&lt;span style=&quot;color: rgb(51 , 51 , 51) ; font-family: &amp;#34;helvetica neue&amp;#34; , &amp;#34;helvetica&amp;#34; , &amp;#34;pingfang sc&amp;#34; , &amp;#34;hiragino sans gb&amp;#34; , &amp;#34;microsoft yahei&amp;#34; , , &amp;#34;arial&amp;#34; , sans-serif ; font-size: 14px&quot;&gt;mysql2hive任务&lt;/span&gt;" style="edgeLabel;html=1;align=center;verticalAlign=middle;resizable=0;points=[];" vertex="1" connectable="0" parent="1">
          <mxGeometry x="360" y="260" as="geometry">
            <mxPoint x="-27" y="143" as="offset" />
          </mxGeometry>
        </mxCell>
        <mxCell id="c4IB6dY-uTS3O9u1TErv-15" style="edgeStyle=orthogonalEdgeStyle;rounded=0;orthogonalLoop=1;jettySize=auto;html=1;exitX=1;exitY=0.5;exitDx=0;exitDy=0;" edge="1" parent="1" target="c4IB6dY-uTS3O9u1TErv-16">
          <mxGeometry relative="1" as="geometry">
            <mxPoint x="694" y="400" as="sourcePoint" />
          </mxGeometry>
        </mxCell>
        <mxCell id="c4IB6dY-uTS3O9u1TErv-16" value="&lt;span style=&quot;color: rgb(51 , 51 , 51) ; background-color: rgb(255 , 255 , 255)&quot;&gt;&lt;font style=&quot;font-size: 12px&quot;&gt;ods.ods_wo05_woden_ticket_evaluation_s_d&lt;/font&gt;&lt;/span&gt;" style="rounded=0;whiteSpace=wrap;html=1;" vertex="1" parent="1">
          <mxGeometry x="800" y="370" width="280" height="60" as="geometry" />
        </mxCell>
        <mxCell id="c4IB6dY-uTS3O9u1TErv-17" value="&lt;span style=&quot;color: rgb(51 , 51 , 51) ; font-family: &amp;#34;helvetica neue&amp;#34; , &amp;#34;helvetica&amp;#34; , &amp;#34;pingfang sc&amp;#34; , &amp;#34;hiragino sans gb&amp;#34; , &amp;#34;microsoft yahei&amp;#34; , , &amp;#34;arial&amp;#34; , sans-serif ; font-size: 14px&quot;&gt;ods任务&lt;/span&gt;" style="edgeLabel;html=1;align=center;verticalAlign=middle;resizable=0;points=[];" vertex="1" connectable="0" parent="1">
          <mxGeometry x="750" y="400" as="geometry">
            <mxPoint x="-4" y="-2" as="offset" />
          </mxGeometry>
        </mxCell>
        <mxCell id="c4IB6dY-uTS3O9u1TErv-19" value="写入" style="edgeStyle=orthogonalEdgeStyle;rounded=0;orthogonalLoop=1;jettySize=auto;html=1;exitX=0.5;exitY=1;exitDx=0;exitDy=0;entryX=0.5;entryY=0;entryDx=0;entryDy=0;" edge="1" parent="1" source="c4IB6dY-uTS3O9u1TErv-18" target="c4IB6dY-uTS3O9u1TErv-1">
          <mxGeometry relative="1" as="geometry" />
        </mxCell>
        <mxCell id="c4IB6dY-uTS3O9u1TErv-18" value="奥丁系统" style="rounded=0;whiteSpace=wrap;html=1;" vertex="1" parent="1">
          <mxGeometry x="110" y="130" width="130" height="60" as="geometry" />
        </mxCell>
        <mxCell id="c4IB6dY-uTS3O9u1TErv-21" style="edgeStyle=orthogonalEdgeStyle;rounded=0;orthogonalLoop=1;jettySize=auto;html=1;exitX=0;exitY=0.5;exitDx=0;exitDy=0;entryX=1;entryY=0.5;entryDx=0;entryDy=0;" edge="1" parent="1" source="c4IB6dY-uTS3O9u1TErv-20" target="c4IB6dY-uTS3O9u1TErv-8">
          <mxGeometry relative="1" as="geometry" />
        </mxCell>
        <mxCell id="c4IB6dY-uTS3O9u1TErv-22" style="edgeStyle=orthogonalEdgeStyle;rounded=0;orthogonalLoop=1;jettySize=auto;html=1;exitX=0;exitY=0.5;exitDx=0;exitDy=0;entryX=1;entryY=0.5;entryDx=0;entryDy=0;" edge="1" parent="1" source="c4IB6dY-uTS3O9u1TErv-20" target="c4IB6dY-uTS3O9u1TErv-16">
          <mxGeometry relative="1" as="geometry">
            <Array as="points">
              <mxPoint x="1185" y="320" />
              <mxPoint x="1185" y="400" />
            </Array>
          </mxGeometry>
        </mxCell>
        <mxCell id="c4IB6dY-uTS3O9u1TErv-23" value="读取数据" style="edgeLabel;html=1;align=center;verticalAlign=middle;resizable=0;points=[];" vertex="1" connectable="0" parent="c4IB6dY-uTS3O9u1TErv-22">
          <mxGeometry x="-0.531" y="-2" relative="1" as="geometry">
            <mxPoint as="offset" />
          </mxGeometry>
        </mxCell>
        <mxCell id="c4IB6dY-uTS3O9u1TErv-20" value="算法" style="rounded=0;whiteSpace=wrap;html=1;" vertex="1" parent="1">
          <mxGeometry x="1290" y="290" width="120" height="60" as="geometry" />
        </mxCell>
      </root>
    </mxGraphModel>
  </diagram>
</mxfile>
